<?xml version="1.0" encoding="UTF-8" standalone="no"?>
<svg xmlns:rdf="http://www.w3.org/1999/02/22-rdf-syntax-ns#" xmlns="http://www.w3.org/2000/svg" height="352.212" width="634.883" version="1.1" xmlns:cc="http://creativecommons.org/ns#" xmlns:dc="http://purl.org/dc/elements/1.1/">
 <g fill="#231f20">
  <path d="m581.719 257.219c-0.575-0.002-1.168 0.014-1.75 0.031-7.248 0.213-14.989 1.781-20.781 1.969-6.405 22.631-20.523 43.13-17.532 68.75 7.687 6.408 20.897 10.222 32 8.937 20.441 0 24.373-1.657 28.219-2.937 5.549-2.565 15.801-4.282 14.094-13.25-12.385-14.092-14.5-32.471-15.781-51.688-2.252-9.459-9.849-11.785-18.469-11.812zm-505.063 1.281c-15.5119 0.215-9.1702 25.821-13.2812 37.031h-0.8438c-3.8429-9.82-2.9689-21.373-4.25-31.625-0.7125-1.246-1.44-1.78-2.1562-1.937l-20.6562 3.437c-2.4068 0.234-4.8354 0.46-7.0938 1.063-4.2696 15.796-5.1352 29.922-9.4062 45.719-2.9882 18.365 20.5021 11.502 26.9062 19.187-9.8232-13.238-6.3931-29.461-5.9688-45.687 0.8544-0.431 1.2814-2.114 2.5626-1.688 0.8548 21.352 9.398 39.273 25.625 54.219 10.6756 2.135 25.1882 2.548 36.7182 0.843-4.697-27.758-31.5907-46.543-20.062-79-3.2027-1.121-5.8778-1.593-8.0938-1.562zm16.625 0.719c-13.6636 30.745 18.7838 50.812 21.3438 79l18.375-1.719c11.786-1.431 21.654-0.565 31.688-3.469 0.708-1.816-0.31-7.275-0.938-10.625l-20.938 1.719c-7.293 1.672-8.959-1.698-9.812-5.969 8.113-5.55 20.491-0.435 29.031-4.281-1.707-3.846 0.428-9.385-2.562-12.375l-31.594-1.719c-6.833-4.269-11.54-11.511-10.687-18.343 12.811 4.694 25.219 10.659 40.593 9.374l-14.969-25.187c-15.372-4.701-31.167-5.553-49.5308-6.406zm453.907 1.656c-4.974 0.048-9.146 1.377-13.626 1.75-1.285 11.099-4.717 21.355-9.843 30.75-3.416-8.539 4.28-21.764-3.407-28.594l-33.312 5.125c3.846 17.508-2.539 35.016-8.094 50.813h13.219c6.406-11.528 8.988-25.189 14.969-36.719 2.561 13.666-4.282 25.614-4.282 39.281 10.248 2.135 17.512 2.993 28.188 3.844l5.125-24.781c1.709-15.802 14.073-24.75 13.219-41.406-0.747-0.054-1.446-0.07-2.156-0.063zm-227.344 5.219c-9.092 0.127-18.718 2.937-27.125 2.937-4.7 20.07-16.236 41.439-6.844 63.219 9.397 2.564 17.95 2.126 27.344 3.406-3.843-8.541-10.688-17.066-8.125-27.312 16.654 0.854 17.944 18.353 29.906 26.468 8.113-0.855 15.791-1.709 23.906-2.562-4.695-15.372-21.769-18.79-29.031-30.75 0.425-0.426 0.837-1.272 1.687-0.844 10.677-4.268 8.967-17.521 7.688-27.344-5.605-5.791-12.335-7.317-19.406-7.218zm30.937 0.375c-11.1 24.766 7.692 42.71 16.657 64.062 5.551 0.851 12.399-1.293 18.374-1.719 0-14.52-8.552-25.169-15.812-37.124l1.719-1.719 20.5 23.062c3.1 5.117 6.644 9.136 9.375 13.688 1.579 1.771 10.463 2.356 14.812 0.406 4.314-8.527 3.979-23.927 8.25-36.313 7.685 8.97 2.997 20.064 4.282 31.594 5.55 0.857 12.384 3.012 16.656-1.687 6.404-14.092 3.834-33.732-4.282-45.688-12.811 2.136-29.898 0.418-42.281-1.719 3.842 9.395 7.281 20.086 7.281 29.907-11.1-9.821-22.659-20.096-26.5-34.188l-29.031-2.562zm-201.125 2.562c14.092 19.217 32.022 37.159 34.156 61.5l22.219-2.562c10.677-16.226 20.073-33.313 26.907-51.25-5.552-4.27-13.252 1.28-20.938 0-3.842 11.106-6.406 20.518-11.531 31.625-4.698-10.25-8.116-21.356-16.657-30.75-11.957-1.281-23.907-3.012-34.156-8.563zm134.5 0.875c-14.946 1.281-29.44 4.25-44.812 4.25l-1.719 1.719c1.708 17.937-6.835 33.743-8.969 51.25 14.519 2.134 32.887-0.851 47.406 2.563l-0.874-14.938c-7.686-2.136-17.927 0.858-25.188-2.562 0.428-14.948 17.502-4.698 25.188-8.969-0.427-4.694 4.707-8.552 1.718-13.25-7.258 0-16.231 3.842-21.781 0 2.56-12.809 18.802-4.26 27.344-8.531 0.427-3.845 2.543-8.116 1.687-11.532zm188.75 0.313c-5.796 0.343-13.58 3.774-18.344 3.093 5.552 14.948 4.262 34.17 0.844 47.407l15.813-0.844c4.271-12.386 9.82-23.92 8.969-38.437 1.399-9.409-2.168-11.522-7.282-11.219zm101.563 3.062c2.121 0.02 4.344 0.354 5.625 2.594-2.136 11.532 0.855 26.919-2.563 38.875-4.268 2.136-9.374-0.01-13.219-1.719-1.279-13.666 3.396-27.333 8.094-39.719 0.64 0 1.356-0.037 2.063-0.031zm-263.594 6.313c0.445 0.003 0.935 0.045 1.469 0.125 2.132 0.425 5.144 1.291 6 4.281 0 5.124-3.001 8.946-8.125 9.375l-5.125-1.687c2.002-4.003-0.889-12.15 5.781-12.094z"/>
  <path d="m22.5938 12.0938c-0.498 0-0.9323 0.1387-1.2813 0.4687-0.3499 0.3288-0.5 0.7506-0.5 1.2187 0 0.5647 0.1501 0.9826 0.5 1.3126 0.349 0.3288 0.7833 0.5 1.2813 0.5h8.375v187.187c-0.2908 5.098-0.9816 8.521-2.0938 10.281-1.1122 1.762-3.1892 3.205-6.1875 4.313-1.4566 0.518-2.2879 0.907-2.5313 1.125-0.2433 0.22-0.375 0.54-0.375 0.969 0 0.439 0.1312 0.772 0.375 1.031 0.2439 0.26 0.5452 0.406 0.9376 0.406h25.9687c0.9754 0 1.6004-0.14 1.8437-0.375 0.2439-0.233 0.375-0.72 0.375-1.469 0-0.842-0.2622-1.408-0.75-1.687l-6.5937-0.563c-2.4463-0.737-4.2059-2.04-5.2813-3.937-1.08-1.895-1.625-5.214-1.625-9.937v-172.344l36.625 190.312h22.375v-190.844c0.2863-4.9089 1.0069-8.2872 2.1563-10.0932 1.1439-1.8061 3.1901-3.2624 6.1565-4.375 1.435-0.4992 2.261-0.8529 2.5-1.0626 0.238-0.2096 0.375-0.5193 0.375-0.9374 0-0.4194-0.137-0.7683-0.375-1.0626-0.239-0.2906-0.556-0.4374-0.938-0.4374h-25.3748c-0.9589 0-1.5429 0.1274-1.7812 0.4062-0.2378 0.2788-0.3438 0.7831-0.3438 1.5312 0 0.8471 0.226 1.3779 0.7188 1.5626l6.3125 0.5624c2.4473 0.7387 4.2619 2.0238 5.4375 3.875 1.1764 1.8513 1.75 4.9045 1.75 9.1563v135.562l-29.3438-152.656-38.6874-0.0002zm94.8442 0c-0.498 0-0.891 0.1387-1.188 0.4687-0.297 0.3288-0.438 0.7838-0.438 1.3437 0 0.4682 0.141 0.8576 0.438 1.1876 0.297 0.3288 0.695 0.5 1.188 0.5h8.874v201.781h-9.937c-1.07 0.634-1.594 1.212-1.594 1.75s0.549 1.152 1.625 1.781h48.782c0.973-0.538 1.468-1.148 1.468-1.781 0-0.538-0.505-1.116-1.468-1.75h-8.719v-201.781l9.343-0.0002c0.519 0 0.953-0.1712 1.313-0.5 0.36-0.33 0.531-0.7479 0.531-1.3126 0-0.4681-0.181-0.8899-0.531-1.2187-0.349-0.33-0.752-0.4687-1.25-0.4687h-48.437zm63.343 0c-1.075 0.5634-1.625 1.1287-1.625 1.6874 0 0.6588 0.524 1.2538 1.594 1.8126h8.594v201.781h-9.063c-0.614 0-1.124 0.154-1.531 0.469-0.409 0.319-0.594 0.743-0.594 1.281s0.171 0.968 0.563 1.281c0.392 0.32 0.906 0.5 1.5 0.5h46.593c0.789 0 1.4-0.204 1.844-0.562 0.446-0.359 0.688-0.77 0.688-1.219s-0.243-0.83-0.688-1.187c-0.445-0.36-1.049-0.563-1.844-0.563h-7.312v-101.844c7.315 0 11.956 0.614 13.938 1.813 3.358 2.125 5.031 6.319 5.031 12.594v73.218c0 6.277 1.835 11.12 5.469 14.532 3.628 3.409 8.964 5.124 16.031 5.124 7.945 0 14.532-2.791 19.781-8.343 5.25-5.553 7.875-13.401 7.875-23.594 0-2.015-0.231-3.418-0.719-4.156-0.392-0.639-0.887-0.938-1.468-0.938-0.494 0-0.966 0.265-1.407 0.813-0.438 0.554-0.717 1.655-0.812 3.312-0.7 9.569-2.332 16.193-4.907 19.875-1.589 2.298-3.362 3.438-5.343 3.438-1.293 0-2.331-0.453-3.125-1.375-0.795-0.922-1.188-2.535-1.188-4.844v-50.656c0-8.675-1.441-15.74-4.312-21.188-2.87-5.443-7.277-10.118-13.219-14-3.507-2.305-9.731-4.693-18.687-7.187 8.003-2.594 13.905-5.28 17.718-8.063 6.346-4.64 11.124-10.5418 14.344-17.6872 3.221-7.143 4.844-15.3115 4.844-24.5 0-15.9588-4.219-28.5463-12.625-37.7813-8.406-9.2302-18.315-13.8437-29.75-13.8437h-46.188zm101.219 0c-0.493 0-0.912 0.1554-1.25 0.4687-0.344 0.3205-0.531 0.7428-0.531 1.2813 0 0.5384 0.187 0.9679 0.531 1.2812 0.338 0.3193 0.757 0.4688 1.25 0.4688h7.5l19.625 188.218c1.076 9.901 1.827 15.231 2.219 15.969s0.966 1.125 1.75 1.125h14.094c1.069 0 1.795-0.35 2.187-1 0.392-0.648 1.027-4.563 1.906-11.781l22.281-175.5c0.784-6.5951 2.215-11.3138 4.282-14.1562 1.274-1.6464 3.072-2.5963 5.437-2.875 0.582-0.1001 1.006-0.3213 1.25-0.625 0.242-0.3038 0.375-0.7101 0.375-1.2188s-0.147-0.909-0.437-1.2188c-0.296-0.3037-0.702-0.4374-1.188-0.4374h-22.25c-1.079 0.6587-1.593 1.2525-1.593 1.8124 0 0.7482 0.279 1.3135 0.874 1.6876l4.75 0.4062c1.675 0.3741 2.956 1.3554 3.844 2.9375 0.884 1.5821 1.313 3.9264 1.313 7 0 1.3009-0.093 2.6053-0.281 3.9063l-17.469 139.656-12.719-153.906 9.062-0.0002c0.594 0 1.048-0.1495 1.344-0.4688 0.297-0.3133 0.469-0.7428 0.469-1.2812 0-0.5385-0.192-0.9608-0.531-1.2813-0.345-0.3133-0.763-0.4687-1.25-0.4687h-46.844zm162.562 0c-0.497 0-0.932 0.1387-1.281 0.4687-0.351 0.3288-0.5 0.7506-0.5 1.2187 0 0.5647 0.151 0.9826 0.5 1.3126 0.349 0.3288 0.784 0.5 1.281 0.5h8.376v187.187c-0.294 5.098-0.982 8.521-2.094 10.281-1.112 1.762-3.189 3.205-6.188 4.313-1.454 0.518-2.289 0.907-2.531 1.125-0.244 0.22-0.375 0.54-0.375 0.969 0 0.439 0.131 0.772 0.375 1.031 0.242 0.26 0.544 0.406 0.937 0.406h25.969c0.976 0 1.6-0.14 1.844-0.375 0.242-0.233 0.375-0.72 0.375-1.469 0-0.842-0.264-1.408-0.75-1.687l-6.594-0.563c-2.448-0.737-4.203-2.04-5.281-3.937-1.079-1.895-1.625-5.214-1.625-9.937v-172.344l36.625 190.312h22.375v-190.844c0.285-4.9089 1.007-8.2872 2.156-10.0932 1.145-1.8061 3.19-3.2624 6.156-4.375 1.436-0.4992 2.263-0.8529 2.5-1.0626 0.239-0.2096 0.376-0.5193 0.376-0.9374 0-0.4194-0.137-0.7683-0.376-1.0626-0.237-0.2906-0.556-0.4374-0.937-0.4374h-25.375c-0.958 0-1.541 0.1274-1.781 0.4062-0.237 0.2788-0.344 0.7831-0.344 1.5312 0 0.8471 0.226 1.3779 0.719 1.5626l6.312 0.5624c2.447 0.7387 4.261 2.0238 5.438 3.875 1.176 1.8513 1.75 4.9045 1.75 9.1563v135.562l-29.344-152.656-38.688-0.0002zm-58.25 3.1874l-25.156 182.157c-0.984 7.372-2.648 12.66-5 15.843-1.573 2.006-3.808 3.198-6.656 3.563l-1.75 0.531c-0.295 0.409-0.438 0.923-0.438 1.531 0 0.613 0.156 1.083 0.5 1.438 0.346 0.358 0.757 0.562 1.25 0.562h25.157c0.486 0 0.905-0.204 1.25-0.562 0.339-0.355 0.5-0.825 0.5-1.438 0-0.608-0.196-1.122-0.594-1.531l-2.406-0.687c-2.893-0.45-5.17-1.705-6.813-3.75-1.64-2.047-2.437-5.057-2.437-9.063 0-1.268 0.028-2.5 0.125-3.687l3.094-22.407h26.906l4.156 39.594h-7.156c-0.498 0-0.924 0.154-1.219 0.469-0.295 0.319-0.437 0.743-0.437 1.281s0.142 0.968 0.437 1.281c0.293 0.32 0.7 0.5 1.187 0.5h44.126c1.081-0.629 1.624-1.243 1.624-1.781s-0.543-1.116-1.624-1.75h-6.626l-26.281-202.094-15.719 0.0002zm178.532 0l-25.156 182.157c-0.985 7.372-2.649 12.66-5 15.843-1.573 2.006-3.775 3.198-6.626 3.563l-1.781 0.531c-0.298 0.409-0.437 0.923-0.437 1.531 0 0.613 0.155 1.083 0.5 1.438 0.342 0.358 0.788 0.562 1.281 0.562h25.125c0.486 0 0.906-0.204 1.25-0.562 0.34-0.355 0.5-0.825 0.5-1.438 0-0.608-0.196-1.122-0.594-1.531l-2.406-0.687c-2.892-0.45-5.141-1.705-6.781-3.75-1.643-2.047-2.469-5.057-2.469-9.063 0-1.268 0.032-2.5 0.125-3.687l3.094-22.407h26.906l4.156 39.594h-7.156c-0.498 0-0.921 0.154-1.219 0.469-0.295 0.319-0.437 0.743-0.437 1.281s0.139 0.968 0.437 1.281c0.291 0.32 0.702 0.5 1.188 0.5h44.125c1.08-0.629 1.625-1.243 1.625-1.781s-0.545-1.116-1.625-1.75h-6.625l-26.282-202.094-15.718 0.0002zm-345.344 0.3126h7.281c4.645 0 7.76 0.7988 9.344 2.375 1.578 1.582 2.344 4.4447 2.344 8.625v72.3124c0 4.2698-1.079 7.5508-3.25 9.7818-2.177 2.23-4.979 3.343-8.438 3.343h-7.281v-96.4372zm162.75 51.4062l11.219 107.281h-26.031l14.812-107.281zm178.531 0l11.25 107.281h-26.062l14.812-107.281z"/>
  <path d="m19.781 246.966h595.321v-6.75742h-595.321v6.75742z"/>
 </g>
</svg>
